<svg width="318" height="88" viewBox="0 0 318 88" fill="none" xmlns="http://www.w3.org/2000/svg">
<mask id="path-1-outside-1_2_2" maskUnits="userSpaceOnUse" x="0.699219" y="0.09375" width="317" height="88" fill="black">
  <defs>
    <linearGradient id="ceruleanGradient" x1="0%" y1="0%" x2="100%" y2="100%">
      <stop offset="0%" style="stop-color:url(#ceruleanGradient);stop-opacity:1" />
      <stop offset="100%" style="stop-color:#00AEEF;stop-opacity:1" />
    </linearGradient>
  </defs>
<rect fill="url(#ceruleanGradient)" x="0.699219" y="0.09375" width="317" height="88"/>
<path d="M24.0234 8.94531V25.3516H34.9805V36.6602H24.0234V69.1211C24.0234 70.7617 24.3945 72.1289 25.1367 73.2227C25.918 74.3164 26.9922 74.8633 28.3594 74.8633C28.7891 74.8633 29.6484 74.8047 30.9375 74.6875C32.2266 74.5312 34.0039 74.0039 36.2695 73.1055V84.0039C33.8477 84.9414 31.543 85.5273 29.3555 85.7617C27.207 86.0352 25.4297 86.1719 24.0234 86.1719C22.1875 86.1719 20.4297 85.8008 18.75 85.0586C17.0703 84.3164 15.5859 83.2812 14.2969 81.9531C13.0469 80.5859 12.0508 78.9453 11.3086 77.0312C10.5664 75.1172 10.1953 72.9883 10.1953 70.6445V36.6602H1.69922V25.3516H10.1953V8.94531H24.0234Z"/>
<path d="M40.7227 55.293C40.7227 51.0352 41.3477 47.0312 42.5977 43.2812C43.8477 39.4922 45.6641 36.1914 48.0469 33.3789C50.4297 30.5273 53.3594 28.2812 56.8359 26.6406C60.3516 25 64.3359 24.1797 68.7891 24.1797C73.2422 24.1797 77.207 25 80.6836 26.6406C84.1992 28.2812 87.1484 30.5273 89.5312 33.3789C91.9531 36.1914 93.7891 39.4922 95.0391 43.2812C96.3281 47.0312 96.9727 51.0352 96.9727 55.293C96.9727 59.5117 96.3477 63.4961 95.0977 67.2461C93.8477 70.9961 92.0117 74.2773 89.5898 77.0898C87.207 79.9023 84.2578 82.1289 80.7422 83.7695C77.2656 85.3711 73.3008 86.1719 68.8477 86.1719C64.3945 86.1719 60.4102 85.3711 56.8945 83.7695C53.418 82.1289 50.4688 79.9023 48.0469 77.0898C45.6641 74.2773 43.8477 70.9961 42.5977 67.2461C41.3477 63.4961 40.7227 59.5117 40.7227 55.293ZM54.5508 55.293C54.5508 57.9492 54.8828 60.4492 55.5469 62.793C56.2109 65.1367 57.1484 67.1875 58.3594 68.9453C59.6094 70.7031 61.1133 72.0898 62.8711 73.1055C64.6289 74.1211 66.6016 74.6289 68.7891 74.6289C70.9766 74.6289 72.9492 74.1211 74.707 73.1055C76.5039 72.0898 78.0273 70.7031 79.2773 68.9453C80.5273 67.1875 81.4844 65.1367 82.1484 62.793C82.8125 60.4492 83.1445 57.9492 83.1445 55.293C83.1445 52.6367 82.8125 50.1367 82.1484 47.793C81.4844 45.4102 80.5273 43.3398 79.2773 41.582C78.0273 39.8242 76.5039 38.4375 74.707 37.4219C72.9492 36.3672 70.9766 35.8398 68.7891 35.8398C66.6016 35.8398 64.6289 36.3672 62.8711 37.4219C61.1133 38.4375 59.6094 39.8242 58.3594 41.582C57.1484 43.3398 56.2109 45.4102 55.5469 47.793C54.8828 50.1367 54.5508 52.6367 54.5508 55.293Z"/>
<path d="M112.676 25.3516V13.9258C112.676 12.0508 113.047 10.332 113.789 8.76953C114.57 7.20703 115.645 5.85938 117.012 4.72656C118.379 3.55469 120 2.65625 121.875 2.03125C123.75 1.40625 125.82 1.09375 128.086 1.09375C128.711 1.09375 129.434 1.13281 130.254 1.21094C131.074 1.25 131.992 1.36719 133.008 1.5625C134.062 1.75781 135.254 2.07031 136.582 2.5C137.91 2.89062 139.434 3.45703 141.152 4.19922V14.9805C139.434 14.3945 137.949 13.9453 136.699 13.6328C135.449 13.2812 134.395 13.0273 133.535 12.8711C132.676 12.7148 132.012 12.6367 131.543 12.6367C131.113 12.5977 130.859 12.5781 130.781 12.5781C130.273 12.5781 129.766 12.6758 129.258 12.8711C128.75 13.0273 128.281 13.2812 127.852 13.6328C127.461 13.9844 127.129 14.4141 126.855 14.9219C126.621 15.4297 126.504 16.0352 126.504 16.7383V25.3516H137.402V36.8359H126.504V85H112.676V36.8359H103.301V25.3516H112.676Z"/>
<path d="M198.047 83.418C196.914 84.1211 195.918 84.6484 195.059 85C194.199 85.3906 193.418 85.6641 192.715 85.8203C192.051 86.0156 191.465 86.1133 190.957 86.1133C190.488 86.1523 190.078 86.1719 189.727 86.1719C188.32 86.1719 187.031 85.918 185.859 85.4102C184.727 84.9023 183.711 84.2383 182.812 83.418C181.953 82.5586 181.191 81.582 180.527 80.4883C179.902 79.3555 179.375 78.1641 178.945 76.9141C177.188 78.75 175.527 80.2734 173.965 81.4844C172.402 82.6562 170.859 83.5938 169.336 84.2969C167.812 85 166.289 85.4883 164.766 85.7617C163.242 86.0352 161.66 86.1719 160.02 86.1719C157.324 86.1719 154.805 85.7617 152.461 84.9414C150.156 84.082 148.145 82.8906 146.426 81.3672C144.707 79.8047 143.359 77.9297 142.383 75.7422C141.406 73.5547 140.918 71.1328 140.918 68.4766C140.918 66.1719 141.426 64.1797 142.441 62.5C143.496 60.8203 144.863 59.3555 146.543 58.1055C148.262 56.8555 150.195 55.7812 152.344 54.8828C154.531 53.9844 156.738 53.1836 158.965 52.4805C161.23 51.7383 163.438 51.0352 165.586 50.3711C167.773 49.707 169.707 49.0039 171.387 48.2617C173.105 47.5195 174.473 46.6992 175.488 45.8008C176.543 44.8633 177.07 43.75 177.07 42.4609C177.07 41.2109 176.738 40.1758 176.074 39.3555C175.449 38.4961 174.629 37.8125 173.613 37.3047C172.637 36.7578 171.523 36.3672 170.273 36.1328C169.062 35.8984 167.871 35.7812 166.699 35.7812C165.527 35.7812 164.355 35.957 163.184 36.3086C162.012 36.6211 160.938 37.1289 159.961 37.832C159.023 38.5352 158.223 39.4531 157.559 40.5859C156.895 41.6797 156.465 42.9883 156.27 44.5117H142.266C142.5 41.0742 143.34 38.0859 144.785 35.5469C146.27 32.9688 148.145 30.8398 150.41 29.1602C152.676 27.4805 155.215 26.2305 158.027 25.4102C160.879 24.5898 163.77 24.1797 166.699 24.1797C169.902 24.1797 172.949 24.5312 175.84 25.2344C178.77 25.9375 181.348 27.0508 183.574 28.5742C185.801 30.0977 187.578 32.0508 188.906 34.4336C190.234 36.7773 190.898 39.6094 190.898 42.9297V71.875C190.898 72.6562 191.152 73.3789 191.66 74.043C192.168 74.668 192.891 74.9805 193.828 74.9805C193.945 74.9805 194.375 74.9414 195.117 74.8633C195.859 74.7461 196.836 74.3555 198.047 73.6914V83.418ZM177.07 56.4062C176.172 56.9531 175 57.4414 173.555 57.8711C172.109 58.3008 170.547 58.75 168.867 59.2188C167.188 59.6484 165.488 60.1172 163.77 60.625C162.09 61.1328 160.566 61.7383 159.199 62.4414C157.832 63.1055 156.699 63.9062 155.801 64.8438C154.941 65.7422 154.512 66.8164 154.512 68.0664C154.512 69.2773 154.707 70.3125 155.098 71.1719C155.488 72.0312 155.996 72.7344 156.621 73.2812C157.285 73.8281 158.027 74.2383 158.848 74.5117C159.668 74.7461 160.488 74.8633 161.309 74.8633C164.004 74.8633 166.738 73.9648 169.512 72.168C172.324 70.332 174.844 67.5781 177.07 63.9062V56.4062Z"/>
<path d="M204.316 25.3516H214.57L216.855 32.6758C218.652 29.8633 220.508 27.7539 222.422 26.3477C224.375 24.9023 226.504 24.1797 228.809 24.1797C229.512 24.1797 230.645 24.3359 232.207 24.6484C233.77 24.9219 235.645 25.6641 237.832 26.875V38.8281C236.387 38.2812 235.137 37.8516 234.082 37.5391C233.066 37.2266 232.207 37.0117 231.504 36.8945C230.84 36.7383 230.312 36.6602 229.922 36.6602C229.57 36.6211 229.316 36.6016 229.16 36.6016C227.441 36.6016 225.898 36.9727 224.531 37.7148C223.164 38.418 222.012 39.375 221.074 40.5859C220.137 41.7578 219.414 43.125 218.906 44.6875C218.398 46.25 218.145 47.8711 218.145 49.5508V85H204.316V25.3516Z"/>
<path d="M297.305 83.418C296.172 84.1211 295.176 84.6484 294.316 85C293.457 85.3906 292.676 85.6641 291.973 85.8203C291.309 86.0156 290.723 86.1133 290.215 86.1133C289.746 86.1523 289.336 86.1719 288.984 86.1719C287.578 86.1719 286.289 85.918 285.117 85.4102C283.984 84.9023 282.969 84.2383 282.07 83.418C281.211 82.5586 280.449 81.582 279.785 80.4883C279.16 79.3555 278.633 78.1641 278.203 76.9141C276.445 78.75 274.785 80.2734 273.223 81.4844C271.66 82.6562 270.117 83.5938 268.594 84.2969C267.07 85 265.547 85.4883 264.023 85.7617C262.5 86.0352 260.918 86.1719 259.277 86.1719C256.582 86.1719 254.062 85.7617 251.719 84.9414C249.414 84.082 247.402 82.8906 245.684 81.3672C243.965 79.8047 242.617 77.9297 241.641 75.7422C240.664 73.5547 240.176 71.1328 240.176 68.4766C240.176 66.1719 240.684 64.1797 241.699 62.5C242.754 60.8203 244.121 59.3555 245.801 58.1055C247.52 56.8555 249.453 55.7812 251.602 54.8828C253.789 53.9844 255.996 53.1836 258.223 52.4805C260.488 51.7383 262.695 51.0352 264.844 50.3711C267.031 49.707 268.965 49.0039 270.645 48.2617C272.363 47.5195 273.73 46.6992 274.746 45.8008C275.801 44.8633 276.328 43.75 276.328 42.4609C276.328 41.2109 275.996 40.1758 275.332 39.3555C274.707 38.4961 273.887 37.8125 272.871 37.3047C271.895 36.7578 270.781 36.3672 269.531 36.1328C268.32 35.8984 267.129 35.7812 265.957 35.7812C264.785 35.7812 263.613 35.957 262.441 36.3086C261.27 36.6211 260.195 37.1289 259.219 37.832C258.281 38.5352 257.48 39.4531 256.816 40.5859C256.152 41.6797 255.723 42.9883 255.527 44.5117H241.523C241.758 41.0742 242.598 38.0859 244.043 35.5469C245.527 32.9688 247.402 30.8398 249.668 29.1602C251.934 27.4805 254.473 26.2305 257.285 25.4102C260.137 24.5898 263.027 24.1797 265.957 24.1797C269.16 24.1797 272.207 24.5312 275.098 25.2344C278.027 25.9375 280.605 27.0508 282.832 28.5742C285.059 30.0977 286.836 32.0508 288.164 34.4336C289.492 36.7773 290.156 39.6094 290.156 42.9297V71.875C290.156 72.6562 290.41 73.3789 290.918 74.043C291.426 74.668 292.148 74.9805 293.086 74.9805C293.203 74.9805 293.633 74.9414 294.375 74.8633C295.117 74.7461 296.094 74.3555 297.305 73.6914V83.418ZM276.328 56.4062C275.43 56.9531 274.258 57.4414 272.812 57.8711C271.367 58.3008 269.805 58.75 268.125 59.2188C266.445 59.6484 264.746 60.1172 263.027 60.625C261.348 61.1328 259.824 61.7383 258.457 62.4414C257.09 63.1055 255.957 63.9062 255.059 64.8438C254.199 65.7422 253.77 66.8164 253.77 68.0664C253.77 69.2773 253.965 70.3125 254.355 71.1719C254.746 72.0312 255.254 72.7344 255.879 73.2812C256.543 73.8281 257.285 74.2383 258.105 74.5117C258.926 74.7461 259.746 74.8633 260.566 74.8633C263.262 74.8633 265.996 73.9648 268.77 72.168C271.582 70.332 274.102 67.5781 276.328 63.9062V56.4062Z"/>
</mask>
<path d="M24.0234 8.94531V25.3516H34.9805V36.6602H24.0234V69.1211C24.0234 70.7617 24.3945 72.1289 25.1367 73.2227C25.918 74.3164 26.9922 74.8633 28.3594 74.8633C28.7891 74.8633 29.6484 74.8047 30.9375 74.6875C32.2266 74.5312 34.0039 74.0039 36.2695 73.1055V84.0039C33.8477 84.9414 31.543 85.5273 29.3555 85.7617C27.207 86.0352 25.4297 86.1719 24.0234 86.1719C22.1875 86.1719 20.4297 85.8008 18.75 85.0586C17.0703 84.3164 15.5859 83.2812 14.2969 81.9531C13.0469 80.5859 12.0508 78.9453 11.3086 77.0312C10.5664 75.1172 10.1953 72.9883 10.1953 70.6445V36.6602H1.69922V25.3516H10.1953V8.94531H24.0234Z" fill="url(#ceruleanGradient)"/>
<path d="M40.7227 55.293C40.7227 51.0352 41.3477 47.0312 42.5977 43.2812C43.8477 39.4922 45.6641 36.1914 48.0469 33.3789C50.4297 30.5273 53.3594 28.2812 56.8359 26.6406C60.3516 25 64.3359 24.1797 68.7891 24.1797C73.2422 24.1797 77.207 25 80.6836 26.6406C84.1992 28.2812 87.1484 30.5273 89.5312 33.3789C91.9531 36.1914 93.7891 39.4922 95.0391 43.2812C96.3281 47.0312 96.9727 51.0352 96.9727 55.293C96.9727 59.5117 96.3477 63.4961 95.0977 67.2461C93.8477 70.9961 92.0117 74.2773 89.5898 77.0898C87.207 79.9023 84.2578 82.1289 80.7422 83.7695C77.2656 85.3711 73.3008 86.1719 68.8477 86.1719C64.3945 86.1719 60.4102 85.3711 56.8945 83.7695C53.418 82.1289 50.4688 79.9023 48.0469 77.0898C45.6641 74.2773 43.8477 70.9961 42.5977 67.2461C41.3477 63.4961 40.7227 59.5117 40.7227 55.293ZM54.5508 55.293C54.5508 57.9492 54.8828 60.4492 55.5469 62.793C56.2109 65.1367 57.1484 67.1875 58.3594 68.9453C59.6094 70.7031 61.1133 72.0898 62.8711 73.1055C64.6289 74.1211 66.6016 74.6289 68.7891 74.6289C70.9766 74.6289 72.9492 74.1211 74.707 73.1055C76.5039 72.0898 78.0273 70.7031 79.2773 68.9453C80.5273 67.1875 81.4844 65.1367 82.1484 62.793C82.8125 60.4492 83.1445 57.9492 83.1445 55.293C83.1445 52.6367 82.8125 50.1367 82.1484 47.793C81.4844 45.4102 80.5273 43.3398 79.2773 41.582C78.0273 39.8242 76.5039 38.4375 74.707 37.4219C72.9492 36.3672 70.9766 35.8398 68.7891 35.8398C66.6016 35.8398 64.6289 36.3672 62.8711 37.4219C61.1133 38.4375 59.6094 39.8242 58.3594 41.582C57.1484 43.3398 56.2109 45.4102 55.5469 47.793C54.8828 50.1367 54.5508 52.6367 54.5508 55.293Z" fill="url(#ceruleanGradient)"/>
<path d="M112.676 25.3516V13.9258C112.676 12.0508 113.047 10.332 113.789 8.76953C114.57 7.20703 115.645 5.85938 117.012 4.72656C118.379 3.55469 120 2.65625 121.875 2.03125C123.75 1.40625 125.82 1.09375 128.086 1.09375C128.711 1.09375 129.434 1.13281 130.254 1.21094C131.074 1.25 131.992 1.36719 133.008 1.5625C134.062 1.75781 135.254 2.07031 136.582 2.5C137.91 2.89062 139.434 3.45703 141.152 4.19922V14.9805C139.434 14.3945 137.949 13.9453 136.699 13.6328C135.449 13.2812 134.395 13.0273 133.535 12.8711C132.676 12.7148 132.012 12.6367 131.543 12.6367C131.113 12.5977 130.859 12.5781 130.781 12.5781C130.273 12.5781 129.766 12.6758 129.258 12.8711C128.75 13.0273 128.281 13.2812 127.852 13.6328C127.461 13.9844 127.129 14.4141 126.855 14.9219C126.621 15.4297 126.504 16.0352 126.504 16.7383V25.3516H137.402V36.8359H126.504V85H112.676V36.8359H103.301V25.3516H112.676Z" fill="url(#ceruleanGradient)"/>
<path d="M198.047 83.418C196.914 84.1211 195.918 84.6484 195.059 85C194.199 85.3906 193.418 85.6641 192.715 85.8203C192.051 86.0156 191.465 86.1133 190.957 86.1133C190.488 86.1523 190.078 86.1719 189.727 86.1719C188.32 86.1719 187.031 85.918 185.859 85.4102C184.727 84.9023 183.711 84.2383 182.812 83.418C181.953 82.5586 181.191 81.582 180.527 80.4883C179.902 79.3555 179.375 78.1641 178.945 76.9141C177.188 78.75 175.527 80.2734 173.965 81.4844C172.402 82.6562 170.859 83.5938 169.336 84.2969C167.812 85 166.289 85.4883 164.766 85.7617C163.242 86.0352 161.66 86.1719 160.02 86.1719C157.324 86.1719 154.805 85.7617 152.461 84.9414C150.156 84.082 148.145 82.8906 146.426 81.3672C144.707 79.8047 143.359 77.9297 142.383 75.7422C141.406 73.5547 140.918 71.1328 140.918 68.4766C140.918 66.1719 141.426 64.1797 142.441 62.5C143.496 60.8203 144.863 59.3555 146.543 58.1055C148.262 56.8555 150.195 55.7812 152.344 54.8828C154.531 53.9844 156.738 53.1836 158.965 52.4805C161.23 51.7383 163.438 51.0352 165.586 50.3711C167.773 49.707 169.707 49.0039 171.387 48.2617C173.105 47.5195 174.473 46.6992 175.488 45.8008C176.543 44.8633 177.07 43.75 177.07 42.4609C177.07 41.2109 176.738 40.1758 176.074 39.3555C175.449 38.4961 174.629 37.8125 173.613 37.3047C172.637 36.7578 171.523 36.3672 170.273 36.1328C169.062 35.8984 167.871 35.7812 166.699 35.7812C165.527 35.7812 164.355 35.957 163.184 36.3086C162.012 36.6211 160.938 37.1289 159.961 37.832C159.023 38.5352 158.223 39.4531 157.559 40.5859C156.895 41.6797 156.465 42.9883 156.27 44.5117H142.266C142.5 41.0742 143.34 38.0859 144.785 35.5469C146.27 32.9688 148.145 30.8398 150.41 29.1602C152.676 27.4805 155.215 26.2305 158.027 25.4102C160.879 24.5898 163.77 24.1797 166.699 24.1797C169.902 24.1797 172.949 24.5312 175.84 25.2344C178.77 25.9375 181.348 27.0508 183.574 28.5742C185.801 30.0977 187.578 32.0508 188.906 34.4336C190.234 36.7773 190.898 39.6094 190.898 42.9297V71.875C190.898 72.6562 191.152 73.3789 191.66 74.043C192.168 74.668 192.891 74.9805 193.828 74.9805C193.945 74.9805 194.375 74.9414 195.117 74.8633C195.859 74.7461 196.836 74.3555 198.047 73.6914V83.418ZM177.07 56.4062C176.172 56.9531 175 57.4414 173.555 57.8711C172.109 58.3008 170.547 58.75 168.867 59.2188C167.188 59.6484 165.488 60.1172 163.77 60.625C162.09 61.1328 160.566 61.7383 159.199 62.4414C157.832 63.1055 156.699 63.9062 155.801 64.8438C154.941 65.7422 154.512 66.8164 154.512 68.0664C154.512 69.2773 154.707 70.3125 155.098 71.1719C155.488 72.0312 155.996 72.7344 156.621 73.2812C157.285 73.8281 158.027 74.2383 158.848 74.5117C159.668 74.7461 160.488 74.8633 161.309 74.8633C164.004 74.8633 166.738 73.9648 169.512 72.168C172.324 70.332 174.844 67.5781 177.07 63.9062V56.4062Z" fill="url(#ceruleanGradient)"/>
<path d="M204.316 25.3516H214.57L216.855 32.6758C218.652 29.8633 220.508 27.7539 222.422 26.3477C224.375 24.9023 226.504 24.1797 228.809 24.1797C229.512 24.1797 230.645 24.3359 232.207 24.6484C233.77 24.9219 235.645 25.6641 237.832 26.875V38.8281C236.387 38.2812 235.137 37.8516 234.082 37.5391C233.066 37.2266 232.207 37.0117 231.504 36.8945C230.84 36.7383 230.312 36.6602 229.922 36.6602C229.57 36.6211 229.316 36.6016 229.16 36.6016C227.441 36.6016 225.898 36.9727 224.531 37.7148C223.164 38.418 222.012 39.375 221.074 40.5859C220.137 41.7578 219.414 43.125 218.906 44.6875C218.398 46.25 218.145 47.8711 218.145 49.5508V85H204.316V25.3516Z" fill="url(#ceruleanGradient)"/>
<path d="M297.305 83.418C296.172 84.1211 295.176 84.6484 294.316 85C293.457 85.3906 292.676 85.6641 291.973 85.8203C291.309 86.0156 290.723 86.1133 290.215 86.1133C289.746 86.1523 289.336 86.1719 288.984 86.1719C287.578 86.1719 286.289 85.918 285.117 85.4102C283.984 84.9023 282.969 84.2383 282.07 83.418C281.211 82.5586 280.449 81.582 279.785 80.4883C279.16 79.3555 278.633 78.1641 278.203 76.9141C276.445 78.75 274.785 80.2734 273.223 81.4844C271.66 82.6562 270.117 83.5938 268.594 84.2969C267.07 85 265.547 85.4883 264.023 85.7617C262.5 86.0352 260.918 86.1719 259.277 86.1719C256.582 86.1719 254.062 85.7617 251.719 84.9414C249.414 84.082 247.402 82.8906 245.684 81.3672C243.965 79.8047 242.617 77.9297 241.641 75.7422C240.664 73.5547 240.176 71.1328 240.176 68.4766C240.176 66.1719 240.684 64.1797 241.699 62.5C242.754 60.8203 244.121 59.3555 245.801 58.1055C247.52 56.8555 249.453 55.7812 251.602 54.8828C253.789 53.9844 255.996 53.1836 258.223 52.4805C260.488 51.7383 262.695 51.0352 264.844 50.3711C267.031 49.707 268.965 49.0039 270.645 48.2617C272.363 47.5195 273.73 46.6992 274.746 45.8008C275.801 44.8633 276.328 43.75 276.328 42.4609C276.328 41.2109 275.996 40.1758 275.332 39.3555C274.707 38.4961 273.887 37.8125 272.871 37.3047C271.895 36.7578 270.781 36.3672 269.531 36.1328C268.32 35.8984 267.129 35.7812 265.957 35.7812C264.785 35.7812 263.613 35.957 262.441 36.3086C261.27 36.6211 260.195 37.1289 259.219 37.832C258.281 38.5352 257.48 39.4531 256.816 40.5859C256.152 41.6797 255.723 42.9883 255.527 44.5117H241.523C241.758 41.0742 242.598 38.0859 244.043 35.5469C245.527 32.9688 247.402 30.8398 249.668 29.1602C251.934 27.4805 254.473 26.2305 257.285 25.4102C260.137 24.5898 263.027 24.1797 265.957 24.1797C269.16 24.1797 272.207 24.5312 275.098 25.2344C278.027 25.9375 280.605 27.0508 282.832 28.5742C285.059 30.0977 286.836 32.0508 288.164 34.4336C289.492 36.7773 290.156 39.6094 290.156 42.9297V71.875C290.156 72.6562 290.41 73.3789 290.918 74.043C291.426 74.668 292.148 74.9805 293.086 74.9805C293.203 74.9805 293.633 74.9414 294.375 74.8633C295.117 74.7461 296.094 74.3555 297.305 73.6914V83.418ZM276.328 56.4062C275.43 56.9531 274.258 57.4414 272.812 57.8711C271.367 58.3008 269.805 58.75 268.125 59.2188C266.445 59.6484 264.746 60.1172 263.027 60.625C261.348 61.1328 259.824 61.7383 258.457 62.4414C257.09 63.1055 255.957 63.9062 255.059 64.8438C254.199 65.7422 253.77 66.8164 253.77 68.0664C253.77 69.2773 253.965 70.3125 254.355 71.1719C254.746 72.0312 255.254 72.7344 255.879 73.2812C256.543 73.8281 257.285 74.2383 258.105 74.5117C258.926 74.7461 259.746 74.8633 260.566 74.8633C263.262 74.8633 265.996 73.9648 268.77 72.168C271.582 70.332 274.102 67.5781 276.328 63.9062V56.4062Z" fill="url(#ceruleanGradient)"/>
<path d="M316.406 70.0586V85H300.527V70.0586H316.406Z" fill="url(#ceruleanGradient)"/>
<path d="M24.0234 8.94531V25.3516H34.9805V36.6602H24.0234V69.1211C24.0234 70.7617 24.3945 72.1289 25.1367 73.2227C25.918 74.3164 26.9922 74.8633 28.3594 74.8633C28.7891 74.8633 29.6484 74.8047 30.9375 74.6875C32.2266 74.5312 34.0039 74.0039 36.2695 73.1055V84.0039C33.8477 84.9414 31.543 85.5273 29.3555 85.7617C27.207 86.0352 25.4297 86.1719 24.0234 86.1719C22.1875 86.1719 20.4297 85.8008 18.75 85.0586C17.0703 84.3164 15.5859 83.2812 14.2969 81.9531C13.0469 80.5859 12.0508 78.9453 11.3086 77.0312C10.5664 75.1172 10.1953 72.9883 10.1953 70.6445V36.6602H1.69922V25.3516H10.1953V8.94531H24.0234Z" stroke="black" stroke-width="2" mask="url(#path-1-outside-1_2_2)"/>
<path d="M40.7227 55.293C40.7227 51.0352 41.3477 47.0312 42.5977 43.2812C43.8477 39.4922 45.6641 36.1914 48.0469 33.3789C50.4297 30.5273 53.3594 28.2812 56.8359 26.6406C60.3516 25 64.3359 24.1797 68.7891 24.1797C73.2422 24.1797 77.207 25 80.6836 26.6406C84.1992 28.2812 87.1484 30.5273 89.5312 33.3789C91.9531 36.1914 93.7891 39.4922 95.0391 43.2812C96.3281 47.0312 96.9727 51.0352 96.9727 55.293C96.9727 59.5117 96.3477 63.4961 95.0977 67.2461C93.8477 70.9961 92.0117 74.2773 89.5898 77.0898C87.207 79.9023 84.2578 82.1289 80.7422 83.7695C77.2656 85.3711 73.3008 86.1719 68.8477 86.1719C64.3945 86.1719 60.4102 85.3711 56.8945 83.7695C53.418 82.1289 50.4688 79.9023 48.0469 77.0898C45.6641 74.2773 43.8477 70.9961 42.5977 67.2461C41.3477 63.4961 40.7227 59.5117 40.7227 55.293ZM54.5508 55.293C54.5508 57.9492 54.8828 60.4492 55.5469 62.793C56.2109 65.1367 57.1484 67.1875 58.3594 68.9453C59.6094 70.7031 61.1133 72.0898 62.8711 73.1055C64.6289 74.1211 66.6016 74.6289 68.7891 74.6289C70.9766 74.6289 72.9492 74.1211 74.707 73.1055C76.5039 72.0898 78.0273 70.7031 79.2773 68.9453C80.5273 67.1875 81.4844 65.1367 82.1484 62.793C82.8125 60.4492 83.1445 57.9492 83.1445 55.293C83.1445 52.6367 82.8125 50.1367 82.1484 47.793C81.4844 45.4102 80.5273 43.3398 79.2773 41.582C78.0273 39.8242 76.5039 38.4375 74.707 37.4219C72.9492 36.3672 70.9766 35.8398 68.7891 35.8398C66.6016 35.8398 64.6289 36.3672 62.8711 37.4219C61.1133 38.4375 59.6094 39.8242 58.3594 41.582C57.1484 43.3398 56.2109 45.4102 55.5469 47.793C54.8828 50.1367 54.5508 52.6367 54.5508 55.293Z" stroke="black" stroke-width="2" mask="url(#path-1-outside-1_2_2)"/>
<path d="M112.676 25.3516V13.9258C112.676 12.0508 113.047 10.332 113.789 8.76953C114.57 7.20703 115.645 5.85938 117.012 4.72656C118.379 3.55469 120 2.65625 121.875 2.03125C123.75 1.40625 125.82 1.09375 128.086 1.09375C128.711 1.09375 129.434 1.13281 130.254 1.21094C131.074 1.25 131.992 1.36719 133.008 1.5625C134.062 1.75781 135.254 2.07031 136.582 2.5C137.91 2.89062 139.434 3.45703 141.152 4.19922V14.9805C139.434 14.3945 137.949 13.9453 136.699 13.6328C135.449 13.2812 134.395 13.0273 133.535 12.8711C132.676 12.7148 132.012 12.6367 131.543 12.6367C131.113 12.5977 130.859 12.5781 130.781 12.5781C130.273 12.5781 129.766 12.6758 129.258 12.8711C128.75 13.0273 128.281 13.2812 127.852 13.6328C127.461 13.9844 127.129 14.4141 126.855 14.9219C126.621 15.4297 126.504 16.0352 126.504 16.7383V25.3516H137.402V36.8359H126.504V85H112.676V36.8359H103.301V25.3516H112.676Z" stroke="black" stroke-width="2" mask="url(#path-1-outside-1_2_2)"/>
<path d="M198.047 83.418C196.914 84.1211 195.918 84.6484 195.059 85C194.199 85.3906 193.418 85.6641 192.715 85.8203C192.051 86.0156 191.465 86.1133 190.957 86.1133C190.488 86.1523 190.078 86.1719 189.727 86.1719C188.32 86.1719 187.031 85.918 185.859 85.4102C184.727 84.9023 183.711 84.2383 182.812 83.418C181.953 82.5586 181.191 81.582 180.527 80.4883C179.902 79.3555 179.375 78.1641 178.945 76.9141C177.188 78.75 175.527 80.2734 173.965 81.4844C172.402 82.6562 170.859 83.5938 169.336 84.2969C167.812 85 166.289 85.4883 164.766 85.7617C163.242 86.0352 161.66 86.1719 160.02 86.1719C157.324 86.1719 154.805 85.7617 152.461 84.9414C150.156 84.082 148.145 82.8906 146.426 81.3672C144.707 79.8047 143.359 77.9297 142.383 75.7422C141.406 73.5547 140.918 71.1328 140.918 68.4766C140.918 66.1719 141.426 64.1797 142.441 62.5C143.496 60.8203 144.863 59.3555 146.543 58.1055C148.262 56.8555 150.195 55.7812 152.344 54.8828C154.531 53.9844 156.738 53.1836 158.965 52.4805C161.23 51.7383 163.438 51.0352 165.586 50.3711C167.773 49.707 169.707 49.0039 171.387 48.2617C173.105 47.5195 174.473 46.6992 175.488 45.8008C176.543 44.8633 177.07 43.75 177.07 42.4609C177.07 41.2109 176.738 40.1758 176.074 39.3555C175.449 38.4961 174.629 37.8125 173.613 37.3047C172.637 36.7578 171.523 36.3672 170.273 36.1328C169.062 35.8984 167.871 35.7812 166.699 35.7812C165.527 35.7812 164.355 35.957 163.184 36.3086C162.012 36.6211 160.938 37.1289 159.961 37.832C159.023 38.5352 158.223 39.4531 157.559 40.5859C156.895 41.6797 156.465 42.9883 156.27 44.5117H142.266C142.5 41.0742 143.34 38.0859 144.785 35.5469C146.27 32.9688 148.145 30.8398 150.41 29.1602C152.676 27.4805 155.215 26.2305 158.027 25.4102C160.879 24.5898 163.77 24.1797 166.699 24.1797C169.902 24.1797 172.949 24.5312 175.84 25.2344C178.77 25.9375 181.348 27.0508 183.574 28.5742C185.801 30.0977 187.578 32.0508 188.906 34.4336C190.234 36.7773 190.898 39.6094 190.898 42.9297V71.875C190.898 72.6562 191.152 73.3789 191.66 74.043C192.168 74.668 192.891 74.9805 193.828 74.9805C193.945 74.9805 194.375 74.9414 195.117 74.8633C195.859 74.7461 196.836 74.3555 198.047 73.6914V83.418ZM177.07 56.4062C176.172 56.9531 175 57.4414 173.555 57.8711C172.109 58.3008 170.547 58.75 168.867 59.2188C167.188 59.6484 165.488 60.1172 163.77 60.625C162.09 61.1328 160.566 61.7383 159.199 62.4414C157.832 63.1055 156.699 63.9062 155.801 64.8438C154.941 65.7422 154.512 66.8164 154.512 68.0664C154.512 69.2773 154.707 70.3125 155.098 71.1719C155.488 72.0312 155.996 72.7344 156.621 73.2812C157.285 73.8281 158.027 74.2383 158.848 74.5117C159.668 74.7461 160.488 74.8633 161.309 74.8633C164.004 74.8633 166.738 73.9648 169.512 72.168C172.324 70.332 174.844 67.5781 177.07 63.9062V56.4062Z" stroke="black" stroke-width="2" mask="url(#path-1-outside-1_2_2)"/>
<path d="M204.316 25.3516H214.57L216.855 32.6758C218.652 29.8633 220.508 27.7539 222.422 26.3477C224.375 24.9023 226.504 24.1797 228.809 24.1797C229.512 24.1797 230.645 24.3359 232.207 24.6484C233.77 24.9219 235.645 25.6641 237.832 26.875V38.8281C236.387 38.2812 235.137 37.8516 234.082 37.5391C233.066 37.2266 232.207 37.0117 231.504 36.8945C230.84 36.7383 230.312 36.6602 229.922 36.6602C229.57 36.6211 229.316 36.6016 229.16 36.6016C227.441 36.6016 225.898 36.9727 224.531 37.7148C223.164 38.418 222.012 39.375 221.074 40.5859C220.137 41.7578 219.414 43.125 218.906 44.6875C218.398 46.25 218.145 47.8711 218.145 49.5508V85H204.316V25.3516Z" stroke="black" stroke-width="2" mask="url(#path-1-outside-1_2_2)"/>
<path d="M297.305 83.418C296.172 84.1211 295.176 84.6484 294.316 85C293.457 85.3906 292.676 85.6641 291.973 85.8203C291.309 86.0156 290.723 86.1133 290.215 86.1133C289.746 86.1523 289.336 86.1719 288.984 86.1719C287.578 86.1719 286.289 85.918 285.117 85.4102C283.984 84.9023 282.969 84.2383 282.07 83.418C281.211 82.5586 280.449 81.582 279.785 80.4883C279.16 79.3555 278.633 78.1641 278.203 76.9141C276.445 78.75 274.785 80.2734 273.223 81.4844C271.66 82.6562 270.117 83.5938 268.594 84.2969C267.07 85 265.547 85.4883 264.023 85.7617C262.5 86.0352 260.918 86.1719 259.277 86.1719C256.582 86.1719 254.062 85.7617 251.719 84.9414C249.414 84.082 247.402 82.8906 245.684 81.3672C243.965 79.8047 242.617 77.9297 241.641 75.7422C240.664 73.5547 240.176 71.1328 240.176 68.4766C240.176 66.1719 240.684 64.1797 241.699 62.5C242.754 60.8203 244.121 59.3555 245.801 58.1055C247.52 56.8555 249.453 55.7812 251.602 54.8828C253.789 53.9844 255.996 53.1836 258.223 52.4805C260.488 51.7383 262.695 51.0352 264.844 50.3711C267.031 49.707 268.965 49.0039 270.645 48.2617C272.363 47.5195 273.73 46.6992 274.746 45.8008C275.801 44.8633 276.328 43.75 276.328 42.4609C276.328 41.2109 275.996 40.1758 275.332 39.3555C274.707 38.4961 273.887 37.8125 272.871 37.3047C271.895 36.7578 270.781 36.3672 269.531 36.1328C268.32 35.8984 267.129 35.7812 265.957 35.7812C264.785 35.7812 263.613 35.957 262.441 36.3086C261.27 36.6211 260.195 37.1289 259.219 37.832C258.281 38.5352 257.48 39.4531 256.816 40.5859C256.152 41.6797 255.723 42.9883 255.527 44.5117H241.523C241.758 41.0742 242.598 38.0859 244.043 35.5469C245.527 32.9688 247.402 30.8398 249.668 29.1602C251.934 27.4805 254.473 26.2305 257.285 25.4102C260.137 24.5898 263.027 24.1797 265.957 24.1797C269.16 24.1797 272.207 24.5312 275.098 25.2344C278.027 25.9375 280.605 27.0508 282.832 28.5742C285.059 30.0977 286.836 32.0508 288.164 34.4336C289.492 36.7773 290.156 39.6094 290.156 42.9297V71.875C290.156 72.6562 290.41 73.3789 290.918 74.043C291.426 74.668 292.148 74.9805 293.086 74.9805C293.203 74.9805 293.633 74.9414 294.375 74.8633C295.117 74.7461 296.094 74.3555 297.305 73.6914V83.418ZM276.328 56.4062C275.43 56.9531 274.258 57.4414 272.812 57.8711C271.367 58.3008 269.805 58.75 268.125 59.2188C266.445 59.6484 264.746 60.1172 263.027 60.625C261.348 61.1328 259.824 61.7383 258.457 62.4414C257.09 63.1055 255.957 63.9062 255.059 64.8438C254.199 65.7422 253.77 66.8164 253.77 68.0664C253.77 69.2773 253.965 70.3125 254.355 71.1719C254.746 72.0312 255.254 72.7344 255.879 73.2812C256.543 73.8281 257.285 74.2383 258.105 74.5117C258.926 74.7461 259.746 74.8633 260.566 74.8633C263.262 74.8633 265.996 73.9648 268.77 72.168C271.582 70.332 274.102 67.5781 276.328 63.9062V56.4062Z" stroke="black" stroke-width="2" mask="url(#path-1-outside-1_2_2)"/>
<path d="M316.406 70.0586V85H300.527V70.0586H316.406Z" stroke="black" stroke-width="2" mask="url(#path-1-outside-1_2_2)"/>
</svg>
